# xmcd
#
# Track frame offsets:
#  150
#  16165
#  50033
#  76630
#  87236
#  105939
#  124870
#  152294
#  174172
#  196262
#
# Disc length: 3005 seconds
#
# Revision: 1
# Processed by: cddbd v1.5.1PL2 Copyright (c) Steve Scherf et al.
# Submitted via: Collectorz.com_Music_Collector 6.11
#
DISCID=620bbb0a
DTITLE=Lee Gates - Black Lucy´s Deuce
DYEAR=2006
DGENRE=Blues
TTITLE0=Get Drunk Baby and Party All Night Long
TTITLE1=My Wife Left Me A Long Time Ago
TTITLE2=Black Lucy Moanin´ The Blues
TTITLE3=Funkin´
TTITLE4=In Deep Up To My Neck
TTITLE5=The Best Lover I´d Ever Had
TTITLE6=Too Much Traffic In My House Today
TTITLE7=Help Me Baby Long As I Live
TTITLE8=Cool´s Groove
TTITLE9=Deuce´s Wild
EXTD=
EXTT0=
EXTT1=
EXTT2=
EXTT3=
EXTT4=
EXTT5=
EXTT6=
EXTT7=
EXTT8=
EXTT9=
PLAYORDER=
